# xmcd CD database file
# Copyright (C) 1997 Ti Kan
#
# Track frame offsets:
#  150
#  16165
#  30277
#  46690
#  63322
#  82460
#  97262
#  113805
#  128362
#  140392
#  154120
#  169342
#  185782
#  201085
#  225932
#
# Disc length: 3216 seconds
#
# Revision: 1
# Processed by: cddbd v1.4b41PL1 Copyright (c) Steve Scherf et al.
# Submitted via: CDWizzard Release:4.32
#
DISCID=bf0c8e0f
DTITLE=Various Artist - More Non-Stop Disco Dance Mix
DYEAR=1900
DGENRE=
TTITLE0=House of the Rising Sun
TTITLE1=Car Wash
TTITLE2=Lady Bump
TTITLE3=Stayin' Alive
TTITLE4=Rasputin
TTITLE5=Daddy Cool
TTITLE6=Keep On Dancin'
TTITLE7=Boogie Oogie Ooogie
TTITLE8=I Love to Love
TTITLE9=(Shake, Shake, Shake) Shake Your Booty
TTITLE10=Last Dance
TTITLE11=Don't Leave Me This Way
TTITLE12=In the Bush
TTITLE13=I Feel Love
TTITLE14=Boogie Nights
EXTD=Songs not by the Original Artist
EXTT0=
EXTT1=
EXTT2=
EXTT3=
EXTT4=
EXTT5=
EXTT6=
EXTT7=
EXTT8=
EXTT9=
EXTT10=
EXTT11=
EXTT12=
EXTT13=
EXTT14=
PLAYORDER=
